<svg xmlns="http://www.w3.org/2000/svg" width="1200" height="700" viewBox="0 0 1200 700">
  <defs>
    <filter id="shadow" x="-2%" y="-2%" width="104%" height="104%">
      <feDropShadow dx="0" dy="1" stdDeviation="2" flood-color="#000" flood-opacity="0.3"/>
    </filter>
    <style>
      text { font-family: Inter, Arial, sans-serif; }
    </style>
  </defs>

  <!-- Background -->
  <rect width="1200" height="700" fill="#0f172a"/>

  <!-- Title -->
  <text x="600" y="32" text-anchor="middle" fill="#f1f5f9" font-size="16" font-weight="700" letter-spacing="0.5">Cruise Yield Optimization — Data Model</text>

  <!-- ════════════════════════════════════════════════════ -->
  <!-- ROW 1 — RAW  (y baseline ~52)                       -->
  <!-- ════════════════════════════════════════════════════ -->
  <text x="16" y="62" fill="#29B5E8" font-size="10" font-weight="700" letter-spacing="1">RAW</text>
  <line x1="42" y1="59" x2="1184" y2="59" stroke="#29B5E8" stroke-opacity="0.25" stroke-width="1"/>

  <!-- SAILINGS -->
  <g filter="url(#shadow)" transform="translate(16,70)">
    <rect width="135" height="72" rx="8" fill="#1e293b"/>
    <rect width="135" height="18" rx="8" fill="#29B5E8"/>
    <rect x="0" y="10" width="135" height="8" fill="#29B5E8"/>
    <text x="68" y="13" text-anchor="middle" fill="#0f172a" font-size="9" font-weight="700">SAILINGS</text>
    <text x="8" y="32" fill="#94a3b8" font-size="7.5">PK SAILING_ID</text>
    <text x="8" y="43" fill="#94a3b8" font-size="7.5">SHIP_NAME, ROUTE</text>
    <text x="8" y="54" fill="#94a3b8" font-size="7.5">DEPARTURE_DATE</text>
    <text x="127" y="66" text-anchor="end" fill="#475569" font-size="7">5K</text>
  </g>

  <!-- GUESTS -->
  <g filter="url(#shadow)" transform="translate(160,70)">
    <rect width="135" height="72" rx="8" fill="#1e293b"/>
    <rect width="135" height="18" rx="8" fill="#29B5E8"/>
    <rect x="0" y="10" width="135" height="8" fill="#29B5E8"/>
    <text x="68" y="13" text-anchor="middle" fill="#0f172a" font-size="9" font-weight="700">GUESTS</text>
    <text x="8" y="32" fill="#94a3b8" font-size="7.5">PK GUEST_ID</text>
    <text x="8" y="43" fill="#94a3b8" font-size="7.5">NAME, TIER, REGION</text>
    <text x="8" y="54" fill="#94a3b8" font-size="7.5">LOYALTY_STATUS</text>
    <text x="127" y="66" text-anchor="end" fill="#475569" font-size="7">500K</text>
  </g>

  <!-- BOOKINGS -->
  <g filter="url(#shadow)" transform="translate(304,70)">
    <rect width="148" height="72" rx="8" fill="#1e293b"/>
    <rect width="148" height="18" rx="8" fill="#29B5E8"/>
    <rect x="0" y="10" width="148" height="8" fill="#29B5E8"/>
    <text x="74" y="13" text-anchor="middle" fill="#0f172a" font-size="9" font-weight="700">BOOKINGS</text>
    <text x="8" y="32" fill="#94a3b8" font-size="7.5">PK BOOKING_ID</text>
    <text x="8" y="43" fill="#94a3b8" font-size="7.5">FK GUEST_ID, SAILING_ID</text>
    <text x="8" y="54" fill="#94a3b8" font-size="7.5">CABIN_TYPE, PRICE</text>
    <text x="140" y="66" text-anchor="end" fill="#475569" font-size="7">2M</text>
  </g>

  <!-- ONBOARD_SPENDING -->
  <g filter="url(#shadow)" transform="translate(461,70)">
    <rect width="148" height="72" rx="8" fill="#1e293b"/>
    <rect width="148" height="18" rx="8" fill="#29B5E8"/>
    <rect x="0" y="10" width="148" height="8" fill="#29B5E8"/>
    <text x="74" y="13" text-anchor="middle" fill="#0f172a" font-size="9" font-weight="700">ONBOARD_SPENDING</text>
    <text x="8" y="32" fill="#94a3b8" font-size="7.5">PK TRANSACTION_ID</text>
    <text x="8" y="43" fill="#94a3b8" font-size="7.5">FK BOOKING_ID</text>
    <text x="8" y="54" fill="#94a3b8" font-size="7.5">CATEGORY, AMOUNT</text>
    <text x="140" y="66" text-anchor="end" fill="#475569" font-size="7">2M</text>
  </g>

  <!-- PRECRUISE_PURCHASES -->
  <g filter="url(#shadow)" transform="translate(618,70)">
    <rect width="148" height="72" rx="8" fill="#1e293b"/>
    <rect width="148" height="18" rx="8" fill="#29B5E8"/>
    <rect x="0" y="10" width="148" height="8" fill="#29B5E8"/>
    <text x="74" y="13" text-anchor="middle" fill="#0f172a" font-size="8" font-weight="700">PRECRUISE_PURCHASES</text>
    <text x="8" y="32" fill="#94a3b8" font-size="7.5">PK PURCHASE_ID</text>
    <text x="8" y="43" fill="#94a3b8" font-size="7.5">FK BOOKING_ID</text>
    <text x="8" y="54" fill="#94a3b8" font-size="7.5">ITEM, AMOUNT</text>
    <text x="140" y="66" text-anchor="end" fill="#475569" font-size="7">1M</text>
  </g>

  <!-- PRICING_EVENTS -->
  <g filter="url(#shadow)" transform="translate(775,70)">
    <rect width="135" height="72" rx="8" fill="#1e293b"/>
    <rect width="135" height="18" rx="8" fill="#29B5E8"/>
    <rect x="0" y="10" width="135" height="8" fill="#29B5E8"/>
    <text x="68" y="13" text-anchor="middle" fill="#0f172a" font-size="9" font-weight="700">PRICING_EVENTS</text>
    <text x="8" y="32" fill="#94a3b8" font-size="7.5">PK EVENT_ID</text>
    <text x="8" y="43" fill="#94a3b8" font-size="7.5">FK GUEST_ID, SAILING_ID</text>
    <text x="8" y="54" fill="#94a3b8" font-size="7.5">PRICE, STRATEGY</text>
    <text x="127" y="66" text-anchor="end" fill="#475569" font-size="7">1M</text>
  </g>

  <!-- PARTNER_SIGNALS -->
  <g filter="url(#shadow)" transform="translate(919,70)">
    <rect width="130" height="72" rx="8" fill="#1e293b"/>
    <rect width="130" height="18" rx="8" fill="#29B5E8"/>
    <rect x="0" y="10" width="130" height="8" fill="#29B5E8"/>
    <text x="65" y="13" text-anchor="middle" fill="#0f172a" font-size="9" font-weight="700">PARTNER_SIGNALS</text>
    <text x="8" y="32" fill="#94a3b8" font-size="7.5">PK SIGNAL_ID</text>
    <text x="8" y="43" fill="#94a3b8" font-size="7.5">PARTNER, SIGNAL_TYPE</text>
    <text x="8" y="54" fill="#94a3b8" font-size="7.5">VALUE, TIMESTAMP</text>
    <text x="122" y="66" text-anchor="end" fill="#475569" font-size="7">100K</text>
  </g>

  <!-- GUEST_FEEDBACK -->
  <g filter="url(#shadow)" transform="translate(1058,70)">
    <rect width="126" height="72" rx="8" fill="#1e293b"/>
    <rect width="126" height="18" rx="8" fill="#29B5E8"/>
    <rect x="0" y="10" width="126" height="8" fill="#29B5E8"/>
    <text x="63" y="13" text-anchor="middle" fill="#0f172a" font-size="9" font-weight="700">GUEST_FEEDBACK</text>
    <text x="8" y="32" fill="#94a3b8" font-size="7.5">PK FEEDBACK_ID</text>
    <text x="8" y="43" fill="#94a3b8" font-size="7.5">FK GUEST_ID</text>
    <text x="8" y="54" fill="#94a3b8" font-size="7.5">RATING, SENTIMENT</text>
    <text x="118" y="66" text-anchor="end" fill="#475569" font-size="7">500K</text>
  </g>

  <!-- ════════════════════════════════════════════════════ -->
  <!-- ROW 2 — CURATED  (y baseline ~210)                  -->
  <!-- ════════════════════════════════════════════════════ -->
  <text x="16" y="215" fill="#30D158" font-size="10" font-weight="700" letter-spacing="1">CURATED</text>
  <line x1="70" y1="212" x2="1184" y2="212" stroke="#30D158" stroke-opacity="0.25" stroke-width="1"/>

  <!-- GUEST_360 -->
  <g filter="url(#shadow)" transform="translate(16,224)">
    <rect width="210" height="72" rx="8" fill="#1e293b"/>
    <rect width="210" height="18" rx="8" fill="#30D158"/>
    <rect x="0" y="10" width="210" height="8" fill="#30D158"/>
    <text x="105" y="13" text-anchor="middle" fill="#0f172a" font-size="9" font-weight="700">GUEST_360</text>
    <rect x="170" y="3" width="34" height="12" rx="3" fill="#0f172a" fill-opacity="0.3"/>
    <text x="187" y="12" text-anchor="middle" fill="#d1fae5" font-size="6.5" font-weight="600">VIEW</text>
    <text x="8" y="32" fill="#94a3b8" font-size="7.5">Joins GUESTS + BOOKINGS +</text>
    <text x="8" y="43" fill="#94a3b8" font-size="7.5">ONBOARD_SPENDING + FEEDBACK</text>
    <text x="8" y="54" fill="#94a3b8" font-size="7.5">GUEST_360_ID, LIFETIME_VALUE</text>
    <text x="8" y="65" fill="#94a3b8" font-size="7.5">TOTAL_CRUISES, AVG_SPEND</text>
  </g>

  <!-- GUEST_BOOKINGS -->
  <g filter="url(#shadow)" transform="translate(240,224)">
    <rect width="185" height="72" rx="8" fill="#1e293b"/>
    <rect width="185" height="18" rx="8" fill="#30D158"/>
    <rect x="0" y="10" width="185" height="8" fill="#30D158"/>
    <text x="78" y="13" text-anchor="middle" fill="#0f172a" font-size="9" font-weight="700">GUEST_BOOKINGS</text>
    <rect x="145" y="3" width="34" height="12" rx="3" fill="#0f172a" fill-opacity="0.3"/>
    <text x="162" y="12" text-anchor="middle" fill="#d1fae5" font-size="6.5" font-weight="600">VIEW</text>
    <text x="8" y="32" fill="#94a3b8" font-size="7.5">FK SAILING_ID</text>
    <text x="8" y="43" fill="#94a3b8" font-size="7.5">Enriched booking details</text>
    <text x="8" y="54" fill="#94a3b8" font-size="7.5">REVENUE, CABIN_CLASS</text>
  </g>

  <!-- GUEST_FLIGHTS -->
  <g filter="url(#shadow)" transform="translate(440,224)">
    <rect width="170" height="72" rx="8" fill="#1e293b"/>
    <rect width="170" height="18" rx="8" fill="#30D158"/>
    <rect x="0" y="10" width="170" height="8" fill="#30D158"/>
    <text x="85" y="13" text-anchor="middle" fill="#0f172a" font-size="9" font-weight="700">GUEST_FLIGHTS</text>
    <text x="8" y="32" fill="#94a3b8" font-size="7.5">PK FLIGHT_ID</text>
    <text x="8" y="43" fill="#94a3b8" font-size="7.5">FK GUEST_360_ID</text>
    <text x="8" y="54" fill="#94a3b8" font-size="7.5">AIRLINE, ARRIVAL_PORT</text>
    <text x="162" y="66" text-anchor="end" fill="#475569" font-size="7">300K</text>
  </g>

  <!-- GUEST_SERVICES -->
  <g filter="url(#shadow)" transform="translate(625,224)">
    <rect width="170" height="72" rx="8" fill="#1e293b"/>
    <rect width="170" height="18" rx="8" fill="#30D158"/>
    <rect x="0" y="10" width="170" height="8" fill="#30D158"/>
    <text x="85" y="13" text-anchor="middle" fill="#0f172a" font-size="9" font-weight="700">GUEST_SERVICES</text>
    <text x="8" y="32" fill="#94a3b8" font-size="7.5">PK SERVICE_ID</text>
    <text x="8" y="43" fill="#94a3b8" font-size="7.5">FK GUEST_360_ID</text>
    <text x="8" y="54" fill="#94a3b8" font-size="7.5">SERVICE_TYPE, STATUS</text>
    <text x="162" y="66" text-anchor="end" fill="#475569" font-size="7">390K</text>
  </g>

  <!-- GUEST_FEEDBACK (curated) -->
  <g filter="url(#shadow)" transform="translate(810,224)">
    <rect width="170" height="72" rx="8" fill="#1e293b"/>
    <rect width="170" height="18" rx="8" fill="#30D158"/>
    <rect x="0" y="10" width="170" height="8" fill="#30D158"/>
    <text x="72" y="13" text-anchor="middle" fill="#0f172a" font-size="9" font-weight="700">GUEST_FEEDBACK</text>
    <rect x="130" y="3" width="34" height="12" rx="3" fill="#0f172a" fill-opacity="0.3"/>
    <text x="147" y="12" text-anchor="middle" fill="#d1fae5" font-size="6.5" font-weight="600">VIEW</text>
    <text x="8" y="32" fill="#94a3b8" font-size="7.5">Enriched feedback with</text>
    <text x="8" y="43" fill="#94a3b8" font-size="7.5">sentiment analysis scores</text>
    <text x="8" y="54" fill="#94a3b8" font-size="7.5">NPS, CATEGORY</text>
  </g>

  <!-- ════════════════════════════════════════════════════ -->
  <!-- ROW 3 — ANALYTICS  (y baseline ~370)                -->
  <!-- ════════════════════════════════════════════════════ -->
  <text x="16" y="380" fill="#F39C12" font-size="10" font-weight="700" letter-spacing="1">ANALYTICS</text>
  <line x1="82" y1="377" x2="1184" y2="377" stroke="#F39C12" stroke-opacity="0.25" stroke-width="1"/>

  <!-- V_SAILING_YIELD -->
  <g filter="url(#shadow)" transform="translate(16,390)">
    <rect width="185" height="68" rx="8" fill="#1e293b"/>
    <rect width="185" height="18" rx="8" fill="#F39C12"/>
    <rect x="0" y="10" width="185" height="8" fill="#F39C12"/>
    <text x="78" y="13" text-anchor="middle" fill="#0f172a" font-size="9" font-weight="700">V_SAILING_YIELD</text>
    <rect x="145" y="3" width="34" height="12" rx="3" fill="#0f172a" fill-opacity="0.3"/>
    <text x="162" y="12" text-anchor="middle" fill="#fef3c7" font-size="6.5" font-weight="600">VIEW</text>
    <text x="8" y="32" fill="#94a3b8" font-size="7.5">Revenue per sailing</text>
    <text x="8" y="43" fill="#94a3b8" font-size="7.5">YIELD_PER_BERTH, OCC_RATE</text>
    <text x="8" y="54" fill="#94a3b8" font-size="7.5">TOTAL_REV, ANCILLARY_REV</text>
  </g>

  <!-- V_PRICING_PERFORMANCE -->
  <g filter="url(#shadow)" transform="translate(215,390)">
    <rect width="200" height="68" rx="8" fill="#1e293b"/>
    <rect width="200" height="18" rx="8" fill="#F39C12"/>
    <rect x="0" y="10" width="200" height="8" fill="#F39C12"/>
    <text x="82" y="13" text-anchor="middle" fill="#0f172a" font-size="8.5" font-weight="700">V_PRICING_PERFORMANCE</text>
    <rect x="160" y="3" width="34" height="12" rx="3" fill="#0f172a" fill-opacity="0.3"/>
    <text x="177" y="12" text-anchor="middle" fill="#fef3c7" font-size="6.5" font-weight="600">VIEW</text>
    <text x="8" y="32" fill="#94a3b8" font-size="7.5">Pricing strategy analysis</text>
    <text x="8" y="43" fill="#94a3b8" font-size="7.5">CONVERSION_RATE, MARGIN</text>
    <text x="8" y="54" fill="#94a3b8" font-size="7.5">ELASTICITY, COMPETITOR_IDX</text>
  </g>

  <!-- Semantic Views box -->
  <g filter="url(#shadow)" transform="translate(430,390)">
    <rect width="380" height="68" rx="8" fill="#1e293b" stroke="#F39C12" stroke-opacity="0.3" stroke-width="1" stroke-dasharray="4,3"/>
    <text x="190" y="16" text-anchor="middle" fill="#F39C12" font-size="8" font-weight="700" letter-spacing="0.5">SEMANTIC VIEWS</text>
    <!-- 4 mini cards -->
    <rect x="10" y="26" width="84" height="32" rx="5" fill="#0f172a" stroke="#F39C12" stroke-opacity="0.35" stroke-width="0.7"/>
    <text x="52" y="39" text-anchor="middle" fill="#F39C12" font-size="7" font-weight="600">YIELD</text>
    <text x="52" y="50" text-anchor="middle" fill="#94a3b8" font-size="6">ANALYTICS</text>

    <rect x="102" y="26" width="84" height="32" rx="5" fill="#0f172a" stroke="#F39C12" stroke-opacity="0.35" stroke-width="0.7"/>
    <text x="144" y="39" text-anchor="middle" fill="#F39C12" font-size="7" font-weight="600">PRICING</text>
    <text x="144" y="50" text-anchor="middle" fill="#94a3b8" font-size="6">ANALYTICS</text>

    <rect x="194" y="26" width="84" height="32" rx="5" fill="#0f172a" stroke="#F39C12" stroke-opacity="0.35" stroke-width="0.7"/>
    <text x="236" y="39" text-anchor="middle" fill="#F39C12" font-size="7" font-weight="600">GUEST_360</text>
    <text x="236" y="50" text-anchor="middle" fill="#94a3b8" font-size="6">SEMANTIC</text>

    <rect x="286" y="26" width="84" height="32" rx="5" fill="#0f172a" stroke="#F39C12" stroke-opacity="0.35" stroke-width="0.7"/>
    <text x="328" y="39" text-anchor="middle" fill="#F39C12" font-size="7" font-weight="600">PARTNER</text>
    <text x="328" y="50" text-anchor="middle" fill="#94a3b8" font-size="6">SIGNALS</text>
  </g>

  <!-- ════════════════════════════════════════════════════ -->
  <!-- ROW 4 — ML  (y baseline ~530)                       -->
  <!-- ════════════════════════════════════════════════════ -->
  <text x="16" y="540" fill="#a78bfa" font-size="10" font-weight="700" letter-spacing="1">ML</text>
  <line x1="30" y1="537" x2="1184" y2="537" stroke="#a78bfa" stroke-opacity="0.25" stroke-width="1"/>

  <!-- PRICING_FEATURES -->
  <g filter="url(#shadow)" transform="translate(16,550)">
    <rect width="185" height="68" rx="8" fill="#1e293b"/>
    <rect width="185" height="18" rx="8" fill="#a78bfa"/>
    <rect x="0" y="10" width="185" height="8" fill="#a78bfa"/>
    <text x="93" y="13" text-anchor="middle" fill="#0f172a" font-size="9" font-weight="700">PRICING_FEATURES</text>
    <text x="8" y="32" fill="#94a3b8" font-size="7.5">Feature-engineered table</text>
    <text x="8" y="43" fill="#94a3b8" font-size="7.5">for ML model training</text>
    <text x="8" y="54" fill="#94a3b8" font-size="7.5">60+ columns</text>
    <text x="177" y="62" text-anchor="end" fill="#475569" font-size="7">1M</text>
  </g>

  <!-- PREDICT_CONVERSION_PROB -->
  <g filter="url(#shadow)" transform="translate(215,550)">
    <rect width="210" height="68" rx="8" fill="#1e293b"/>
    <rect width="210" height="18" rx="8" fill="#a78bfa"/>
    <rect x="0" y="10" width="210" height="8" fill="#a78bfa"/>
    <text x="88" y="13" text-anchor="middle" fill="#0f172a" font-size="8" font-weight="700">PREDICT_CONVERSION_PROB</text>
    <rect x="170" y="3" width="34" height="12" rx="3" fill="#0f172a" fill-opacity="0.3"/>
    <text x="187" y="12" text-anchor="middle" fill="#ede9fe" font-size="6.5" font-weight="600">UDF</text>
    <text x="8" y="32" fill="#94a3b8" font-size="7.5">XGBoost conversion</text>
    <text x="8" y="43" fill="#94a3b8" font-size="7.5">probability scoring</text>
    <text x="8" y="54" fill="#94a3b8" font-size="7.5">IN: features OUT: probability</text>
  </g>

  <!-- GET_OPTIMAL_PRICE -->
  <g filter="url(#shadow)" transform="translate(440,550)">
    <rect width="185" height="68" rx="8" fill="#1e293b"/>
    <rect width="185" height="18" rx="8" fill="#a78bfa"/>
    <rect x="0" y="10" width="185" height="8" fill="#a78bfa"/>
    <text x="78" y="13" text-anchor="middle" fill="#0f172a" font-size="8.5" font-weight="700">GET_OPTIMAL_PRICE</text>
    <rect x="145" y="3" width="34" height="12" rx="3" fill="#0f172a" fill-opacity="0.3"/>
    <text x="162" y="12" text-anchor="middle" fill="#ede9fe" font-size="6.5" font-weight="600">UDF</text>
    <text x="8" y="32" fill="#94a3b8" font-size="7.5">Dynamic pricing engine</text>
    <text x="8" y="43" fill="#94a3b8" font-size="7.5">Revenue-maximizing price</text>
    <text x="8" y="54" fill="#94a3b8" font-size="7.5">per cabin category</text>
  </g>

  <!-- RUN_SCENARIO -->
  <g filter="url(#shadow)" transform="translate(640,550)">
    <rect width="170" height="68" rx="8" fill="#1e293b"/>
    <rect width="170" height="18" rx="8" fill="#a78bfa"/>
    <rect x="0" y="10" width="170" height="8" fill="#a78bfa"/>
    <text x="72" y="13" text-anchor="middle" fill="#0f172a" font-size="9" font-weight="700">RUN_SCENARIO</text>
    <rect x="130" y="3" width="34" height="12" rx="3" fill="#0f172a" fill-opacity="0.3"/>
    <text x="147" y="12" text-anchor="middle" fill="#ede9fe" font-size="6.5" font-weight="600">UDF</text>
    <text x="8" y="32" fill="#94a3b8" font-size="7.5">What-if simulation</text>
    <text x="8" y="43" fill="#94a3b8" font-size="7.5">across pricing levers</text>
    <text x="8" y="54" fill="#94a3b8" font-size="7.5">IN: params OUT: forecast</text>
  </g>

  <!-- ════════════════════════════════════════════════════ -->
  <!-- RELATIONSHIP LINES                                  -->
  <!-- ════════════════════════════════════════════════════ -->

  <!-- GUESTS -> BOOKINGS  (GUEST_ID) -->
  <!-- From right-center of GUESTS to left-center of BOOKINGS -->
  <line x1="295" y1="106" x2="304" y2="106" stroke="#475569" stroke-width="1.2" stroke-dasharray="4,3"/>
  <circle cx="295" cy="106" r="2.5" fill="#475569"/>
  <polygon points="304,103 310,106 304,109" fill="#475569"/>
  <text x="297" y="100" fill="#475569" font-size="6">GUEST_ID</text>

  <!-- SAILINGS -> BOOKINGS  (SAILING_ID) -->
  <!-- From right-edge of SAILINGS, curve down to top of BOOKINGS -->
  <path d="M 151,106 C 170,106 170,88 185,88 L 304,88 L 304,92"
        stroke="#475569" stroke-width="1.2" stroke-dasharray="4,3" fill="none"/>
  <circle cx="151" cy="106" r="2.5" fill="#475569"/>
  <polygon points="301,92 304,98 307,92" fill="#475569"/>
  <text x="210" y="84" fill="#475569" font-size="6">SAILING_ID</text>

  <!-- BOOKINGS -> ONBOARD_SPENDING -->
  <line x1="452" y1="112" x2="461" y2="112" stroke="#475569" stroke-width="1.2" stroke-dasharray="4,3"/>
  <circle cx="452" cy="112" r="2.5" fill="#475569"/>
  <polygon points="461,109 467,112 461,115" fill="#475569"/>
  <text x="453" y="108" fill="#475569" font-size="6">BOOKING_ID</text>

  <!-- GUESTS -> GUEST_360 view (vertical, RAW to CURATED) -->
  <path d="M 228,142 L 228,170 C 228,184 160,200 121,224"
        stroke="#475569" stroke-width="1.2" stroke-dasharray="4,3" fill="none"/>
  <circle cx="228" cy="142" r="2.5" fill="#475569"/>
  <polygon points="118,221 121,228 125,222" fill="#475569"/>

  <!-- GUEST_360 -> GUEST_FLIGHTS (GUEST_360_ID) -->
  <line x1="226" y1="260" x2="440" y2="260" stroke="#475569" stroke-width="1.2" stroke-dasharray="4,3"/>
  <circle cx="226" cy="260" r="2.5" fill="#475569"/>
  <polygon points="440,257 446,260 440,263" fill="#475569"/>
  <text x="310" y="255" fill="#475569" font-size="6">GUEST_360_ID</text>

  <!-- GUEST_360 -> GUEST_SERVICES (GUEST_360_ID) -->
  <path d="M 226,275 C 226,290 400,290 625,270"
        stroke="#475569" stroke-width="1.2" stroke-dasharray="4,3" fill="none"/>
  <circle cx="226" cy="275" r="2.5" fill="#475569"/>
  <polygon points="625,267 631,270 625,273" fill="#475569"/>
  <text x="420" y="290" fill="#475569" font-size="6">GUEST_360_ID</text>

  <!-- ════════════════════════════════════════════════════ -->
  <!-- Data flow arrows (schema-to-schema, subtle)         -->
  <!-- ════════════════════════════════════════════════════ -->

  <!-- RAW -> CURATED arrow -->
  <path d="M 1150,155 L 1150,205" stroke="#29B5E8" stroke-opacity="0.35" stroke-width="1.5" fill="none" marker-end="url(#arrowGreen)"/>
  <defs>
    <marker id="arrowGreen" markerWidth="6" markerHeight="6" refX="5" refY="3" orient="auto">
      <path d="M 0,0 L 6,3 L 0,6 Z" fill="#30D158" fill-opacity="0.5"/>
    </marker>
    <marker id="arrowAmber" markerWidth="6" markerHeight="6" refX="5" refY="3" orient="auto">
      <path d="M 0,0 L 6,3 L 0,6 Z" fill="#F39C12" fill-opacity="0.5"/>
    </marker>
    <marker id="arrowPurple" markerWidth="6" markerHeight="6" refX="5" refY="3" orient="auto">
      <path d="M 0,0 L 6,3 L 0,6 Z" fill="#a78bfa" fill-opacity="0.5"/>
    </marker>
  </defs>

  <!-- CURATED -> ANALYTICS arrow -->
  <path d="M 1150,310 L 1150,370" stroke="#30D158" stroke-opacity="0.35" stroke-width="1.5" fill="none" marker-end="url(#arrowAmber)"/>

  <!-- ANALYTICS -> ML arrow -->
  <path d="M 1150,470 L 1150,530" stroke="#F39C12" stroke-opacity="0.35" stroke-width="1.5" fill="none" marker-end="url(#arrowPurple)"/>

  <!-- Flow labels -->
  <text x="1160" y="182" fill="#94a3b8" font-size="7" writing-mode="tb">Curate</text>
  <text x="1160" y="340" fill="#94a3b8" font-size="7" writing-mode="tb">Analyze</text>
  <text x="1160" y="500" fill="#94a3b8" font-size="7" writing-mode="tb">Train</text>

  <!-- ════════════════════════════════════════════════════ -->
  <!-- Legend                                               -->
  <!-- ════════════════════════════════════════════════════ -->
  <g transform="translate(16,660)">
    <rect x="0" y="0" width="8" height="8" rx="2" fill="#29B5E8"/>
    <text x="12" y="7" fill="#94a3b8" font-size="7">RAW</text>
    <rect x="48" y="0" width="8" height="8" rx="2" fill="#30D158"/>
    <text x="60" y="7" fill="#94a3b8" font-size="7">CURATED</text>
    <rect x="112" y="0" width="8" height="8" rx="2" fill="#F39C12"/>
    <text x="124" y="7" fill="#94a3b8" font-size="7">ANALYTICS</text>
    <rect x="186" y="0" width="8" height="8" rx="2" fill="#a78bfa"/>
    <text x="198" y="7" fill="#94a3b8" font-size="7">ML</text>
    <line x1="240" y1="4" x2="265" y2="4" stroke="#475569" stroke-width="1" stroke-dasharray="4,3"/>
    <text x="270" y="7" fill="#94a3b8" font-size="7">FK Relationship</text>
    <text x="340" y="7" fill="#475569" font-size="7">|</text>
    <text x="350" y="7" fill="#94a3b8" font-size="7">PK = Primary Key  FK = Foreign Key</text>
  </g>

  <!-- Watermark -->
  <text x="1184" y="692" text-anchor="end" fill="#334155" font-size="6.5">Powered by Snowflake</text>

</svg>